<svg xmlns="http://www.w3.org/2000/svg" viewBox="0 0 560 120" width="560" height="120">
  <defs>
    <linearGradient id="pulseGrad" x1="0%" y1="0%" x2="100%" y2="0%">
      <stop offset="0%" style="stop-color:#FF3621;stop-opacity:1" />
      <stop offset="50%" style="stop-color:#E8582A;stop-opacity:1" />
      <stop offset="100%" style="stop-color:#FF6A33;stop-opacity:1" />
    </linearGradient>
    <linearGradient id="textGrad" x1="0%" y1="0%" x2="100%" y2="0%">
      <stop offset="0%" style="stop-color:#1B3A4B;stop-opacity:1" />
      <stop offset="100%" style="stop-color:#2D5F7A;stop-opacity:1" />
    </linearGradient>
  </defs>

  <!-- Impulse signal mark (solid Databricks red) -->
  <g transform="translate(20, 20)">
    <path d="M 0,40 L 15,40 L 20,40 L 25,8 L 30,40 L 35,52 L 42,40 L 55,40"
          fill="none" stroke="#FF3621" stroke-width="4.5" stroke-linecap="round" stroke-linejoin="round"/>
    <path d="M 55,40 L 62,40 L 66,22 L 70,40 L 73,46 L 77,40 L 85,40"
          fill="none" stroke="#FF3621" stroke-width="3.5" stroke-linecap="round" stroke-linejoin="round" opacity="0.7"/>
  </g>

  <!-- Wordmark -->
  <text x="125" y="68" font-family="'Inter', 'Helvetica Neue', Arial, sans-serif" font-size="62" font-weight="700" fill="url(#textGrad)" letter-spacing="-1.5">
    Impulse
  </text>

  <!-- Tagline -->
  <text x="127" y="92" font-family="'Inter', 'Helvetica Neue', Arial, sans-serif" font-size="14" font-weight="400" fill="#5A7A8A" letter-spacing="3">
    TIME SERIES ANALYTICS
  </text>

  <!-- Divider line -->
  <line x1="430" y1="20" x2="430" y2="100" stroke="#C0CDD5" stroke-width="1"/>

  <!-- Databricks symbol (scaled down to ~40px height) -->
  <g transform="translate(445, 35) scale(0.12)">
    <path d="M283.923 136.449L150.144 213.624L6.88995 131.168L0 134.982V194.844L150.144 281.115L283.923 204.234V235.926L150.144 313.1L6.88995 230.644L0 234.458V244.729L150.144 331L300 244.729V184.867L293.11 181.052L150.144 263.215L16.0766 186.334V154.643L150.144 231.524L300 145.253V86.2713L292.536 81.8697L150.144 163.739L22.9665 90.9663L150.144 17.8998L254.641 78.055L263.828 72.773V65.4371L150.144 0L0 86.2713V95.6613L150.144 181.933L283.923 104.758V136.449Z" fill="#FF3621"/>
  </g>

  <!-- "Labs" text -->
  <text x="487" y="68" font-family="'Inter', 'Helvetica Neue', Arial, sans-serif" font-size="22" font-weight="600" fill="#1B3A4B" letter-spacing="0.5">
    Labs
  </text>
</svg>
